# xmcd CD database file
#
# Track frame offsets:
#	150
#	23445
#	53830
#	75788
#	93172
#	115142
#	133707
#	153408
#	188957
#	216450
#	239556
#	261600
#	293787
#	329614
#
# Disc length: 4794 seconds
#
# Revision: 0
# Processed by: cddbd v1.5.1PL2 Copyright (c) Steve Scherf et al.
# Submitted via: Feurio! 1.68 - http://www.feurio.com
#
DISCID=c612b80e
DTITLE=Rory Gallagher - Session's
DYEAR=1900
DGENRE=
TTITLE0=Got My Mojo Working
TTITLE1=Race The Breece
TTITLE2=Hands Off
TTITLE3=Crest Of A Wave
TTITLE4=Feel So
TTITLE5=BBC Session I
TTITLE6=It Takes Time
TTITLE7=Seventh Son Of 7th Son
TTITLE8=Daughter Of Everglades
TTITLE9=BBC Session II
TTITLE10=Baby She Left Me
TTITLE11=Hoodoo Man
TTITLE12=Ghost Blues
TTITLE13=Rattlesnake Guitar
EXTD=
EXTT0=
EXTT1=
EXTT2=
EXTT3=
EXTT4=
EXTT5=
EXTT6=
EXTT7=
EXTT8=
EXTT9=
EXTT10=
EXTT11=
EXTT12=
EXTT13=
PLAYORDER=
